<svg xmlns="http://www.w3.org/2000/svg" viewBox="0 0 260 60" width="260" height="60">
  <!-- Definición del gradiente -->
  <defs>
    <linearGradient id="logoGradient" x1="0%" y1="0%" x2="100%" y2="0%">
      <stop offset="0%" stop-color="#FF8C00" />
      <stop offset="33%" stop-color="#FFD700" />
      <stop offset="66%" stop-color="#4CAF50" />
      <stop offset="100%" stop-color="#2196F3" />
    </linearGradient>
  </defs>
  
  <!-- Texto "Bingaton" convertido a paths -->
  <path d="M15.9 14.3c5.2 0 8.4 2.4 8.4 7.2 0 3.1-1.6 5.2-4.1 6 3.1 0.8 5 3.1 5 6.5 0 5-3.4 7.9-9.1 7.9H5.4V14.3H15.9zM14.9 27.2c2.5 0 3.9-1.3 3.9-3.5 0-2.2-1.4-3.5-3.9-3.5h-4v6.9H14.9zM15.5 36.1c2.8 0 4.2-1.4 4.2-3.8 0-2.3-1.4-3.7-4.2-3.7h-4.6v7.5H15.5z" fill="url(#logoGradient)"/>
  <path d="M29.9 15c1.4 0 2.5 1.1 2.5 2.5s-1.1 2.5-2.5 2.5-2.5-1.1-2.5-2.5S28.5 15 29.9 15zM27.7 23.2h4.3v18.8h-4.3V23.2z" fill="url(#logoGradient)"/>
  <path d="M49.4 41.9V40c-1.2 1.5-3.1 2.4-5.6 2.4-3.9 0-7.3-3-7.3-9.7v-0.1c0-6.5 3.4-9.7 7.3-9.7 2.5 0 4.4 0.9 5.6 2.3v-8.1h4.3v24.7H49.4zM49.4 32.6L49.4 32.6c0-3.8-1.7-5.9-4.3-5.9-2.6 0-4.3 2-4.3 5.9v0.1c0 3.8 1.7 5.9 4.3 5.9C47.7 38.5 49.4 36.5 49.4 32.6z" fill="url(#logoGradient)"/>
  <path d="M71.9 31.4v0.6c0 0.6 0 1-0.1 1.4H59.2c0.4 3.2 2.1 4.9 4.9 4.9 2 0 3.5-0.7 4.7-2.4l2.5 2.2c-1.7 2.4-4.2 3.7-7.4 3.7-5.4 0-9-3.7-9-9.7v-0.1c0-5.9 3.5-9.7 8.7-9.7C69.1 22.4 71.9 26.3 71.9 31.4zM67.6 30c-0.2-3.1-1.8-4.7-4.3-4.7-2.4 0-4.1 1.8-4.4 4.7H67.6z" fill="url(#logoGradient)"/>
  <path d="M89 41.9V33c0-3.3-1.6-5.1-4.2-5.1-2.6 0-4.5 1.9-4.5 5.4v8.6H76v-18.8h4.3v2.3c1.3-1.7 3.2-2.6 5.7-2.6 4.3 0 7.2 2.9 7.2 7.7v11.4H89z" fill="url(#logoGradient)"/>
  <path d="M108.3 41.9V33c0-3.3-1.6-5.1-4.2-5.1-2.6 0-4.5 1.9-4.5 5.4v8.6h-4.3v-18.8h4.3v2.3c1.3-1.7 3.2-2.6 5.7-2.6 4.3 0 7.2 2.9 7.2 7.7v11.4H108.3z" fill="url(#logoGradient)"/>
  <path d="M114.3 23.2h4.3v2.7c1.1-1.8 2.8-3.1 5.4-3.1v4.5h-0.3c-3.1 0-5.1 1.9-5.1 5.9v8.6h-4.3V23.2z" fill="url(#logoGradient)"/>
  <path d="M136.9 41.9V39.7c-1.3 1.6-3.3 2.6-5.9 2.6-3.5 0-6.9-1.9-6.9-5.9v-0.1c0-4.3 3.3-6.3 7.9-6.3 2 0 3.4 0.3 4.8 0.8v-0.3c0-2.3-1.4-3.6-4.2-3.6-2.1 0-3.6 0.4-5.3 1.1l-1.1-3.4c2.1-0.9 4.2-1.5 7.1-1.5 5.7 0 8 3 8 8.1v10.6H136.9zM137 33.4c-1.1-0.5-2.5-0.8-4.1-0.8-2.7 0-4.4 1.1-4.4 3v0.1c0 1.8 1.5 2.9 3.5 2.9 2.9 0 5-1.6 5-3.9V33.4z" fill="url(#logoGradient)"/>
  <path d="M147.1 23.2h4.3v2.7c1.1-1.8 2.8-3.1 5.4-3.1v4.5h-0.3c-3.1 0-5.1 1.9-5.1 5.9v8.6h-4.3V23.2z" fill="url(#logoGradient)"/>
  <path d="M164.1 41.9h-4.3V17.2h4.3v11.5l7.1-5.5h5.5l-8.1 6.2 8.5 12.5h-5.3l-6.1-9.1-1.6 1.2V41.9z" fill="url(#logoGradient)"/>
  
  <!-- Bola de bingo -->
  <circle cx="235" cy="30" r="16" fill="url(#logoGradient)" />
  <circle cx="235" cy="30" r="14" fill="white" opacity="0.2" />
  <path d="M227 33v-6c0-1.1 0.9-2 2-2h12c1.1 0 2 0.9 2 2v6c0 5-4 9-8 9S227 38 227 33z" fill="white" opacity="0.9"/>
  <path d="M231 23h8c1.1 0 2 0.9 2 2v2c0 1.1-0.9 2-2 2h-8c-1.1 0-2-0.9-2-2v-2C229 23.9 229.9 23 231 23z" fill="url(#logoGradient)"/>
  <!-- Letra B como path en lugar de texto -->
  <path d="M232.5 28h1.5c0.8 0 1.5 0.2 1.5 1s-0.7 1-1.5 1h-1.5v-2zm0-3.5h1.3c0.7 0 1.2 0.2 1.2 0.9s-0.5 0.9-1.2 0.9h-1.3v-1.8zm-2 7.5v-9h4c1.7 0 3 0.7 3 2.5 0 1-0.6 1.7-1.5 2 1.1 0.2 1.9 1 1.9 2.2 0 2-1.3 2.8-3.4 2.8h-4z" fill="#333"/>
</svg> 